<svg width="100" height="100" viewBox="0 0 100 100" fill="none" xmlns="http://www.w3.org/2000/svg">
<path d="M90 26.667L56.667 10L50 20L43.333 10L10 26.667L16.667 36.667L10 46.667L16.667 50V73.333L50 90L83.333 73.333V50L90 46.667L83.333 36.667L90 26.667ZM41.051 18.595L43.99 23.004L22.676 33.662L19.737 29.253L41.051 18.595ZM22.676 39.671L43.991 50.328L41.052 54.739L19.736 44.081L22.676 39.671ZM46.667 80.879L23.333 69.212V53.333L43.333 63.333L46.666 58.333L46.667 80.879ZM31.574 36.667L50 27.453L68.425 36.667L50 45.88L31.574 36.667ZM76.667 69.212L53.333 80.879V58.333L56.667 63.333L76.667 53.333V69.212ZM58.948 54.739L56.009 50.328L77.324 39.671L80.263 44.08L58.948 54.739ZM77.324 33.662L56.009 23.004L58.948 18.595L80.263 29.253L77.324 33.662Z" fill="white"/>
</svg>
