<svg width="100" height="100" viewBox="0 0 100 100" fill="none" xmlns="http://www.w3.org/2000/svg">
<path d="M43.333 83.333C43.333 87.012 40.349 90 36.667 90C32.988 90 30 87.012 30 83.333C30 79.648 32.988 76.667 36.667 76.667C40.349 76.667 43.333 79.648 43.333 83.333Z" fill="white"/>
<path d="M73.333 83.333C73.333 87.012 70.349 90 66.667 90C62.985 90 60 87.012 60 83.333C60 79.648 62.985 76.667 66.667 76.667C70.349 76.667 73.333 79.648 73.333 83.333Z" fill="white"/>
<path d="M90 23.333H83.226L77.771 53.333H73.333V13.333H53.333V26.667H33.333V53.333H30.176L24.375 16.585C23.802 12.962 20.335 10 16.667 10H10V16.667H17.637L26.065 70.039C26.351 71.849 28.086 73.333 29.919 73.333H83.333V66.667H32.282L31.228 60H83.333L90 23.333ZM40 33.333H53.333V40H40V33.333ZM66.667 53.333H40V46.667H66.667V53.333ZM66.667 40H60V20H66.667V40Z" fill="white"/>
</svg>
