<svg width="400" height="400" viewBox="0 0 400 400" fill="none" xmlns="http://www.w3.org/2000/svg">
<path d="M200 333.333C235.362 333.333 269.276 319.286 294.281 294.281C319.286 269.276 333.333 235.362 333.333 200C333.333 164.638 319.286 130.724 294.281 105.719C269.276 80.7143 235.362 66.6667 200 66.6667C164.638 66.6667 130.724 80.7143 105.719 105.719C80.7143 130.724 66.6667 164.638 66.6667 200C66.6667 235.362 80.7143 269.276 105.719 294.281C130.724 319.286 164.638 333.333 200 333.333ZM200 33.3334C221.887 33.3334 243.56 37.6443 263.781 46.0201C284.002 54.3959 302.375 66.6725 317.851 82.1489C333.328 97.6253 345.604 115.999 353.98 136.219C362.356 156.44 366.667 178.113 366.667 200C366.667 244.203 349.107 286.595 317.851 317.851C286.595 349.107 244.203 366.667 200 366.667C107.833 366.667 33.3334 291.667 33.3334 200C33.3334 155.797 50.8928 113.405 82.1489 82.1489C113.405 50.8928 155.797 33.3334 200 33.3334ZM195.833 116.667C202.737 116.667 208.333 122.263 208.333 129.167V192.778C208.333 199.838 212.056 206.375 218.128 209.978L272.91 242.482C278.646 245.886 280.496 253.32 277.023 259.015V259.015C273.598 264.633 266.28 266.435 260.638 263.049L193.043 222.493C187.019 218.878 183.333 212.368 183.333 205.343V129.167C183.333 122.263 188.93 116.667 195.833 116.667V116.667Z" fill="#6D0AD6"/>
</svg>
