<svg width="400" height="400" viewBox="0 0 400 400" fill="none" xmlns="http://www.w3.org/2000/svg">
<path d="M250 183.333V183.5M86.2167 139.633C78.9066 134.015 73.2924 126.485 69.9943 117.875C66.6963 109.266 65.843 99.9121 67.5286 90.8479C69.2142 81.7837 73.3732 73.3621 79.5459 66.5138C85.7185 59.6654 93.6645 54.6572 102.506 52.0424C111.347 49.4277 120.739 49.3084 129.643 51.6976C138.548 54.0868 146.618 58.8916 152.963 65.5809C159.308 72.2701 163.679 80.5834 165.595 89.6018C167.51 98.6203 166.895 107.993 163.817 116.683" stroke="#309F5F" stroke-width="33.3333" stroke-linecap="round" stroke-linejoin="round"/>
<path d="M266.667 66.6666V130.05C287.294 141.985 302.998 160.874 310.967 183.333H333.317C337.737 183.333 341.976 185.089 345.102 188.215C348.227 191.34 349.983 195.58 349.983 200V233.333C349.983 237.754 348.227 241.993 345.102 245.118C341.976 248.244 337.737 250 333.317 250H310.95C305.35 265.833 295.833 280 283.317 291.217V325C283.317 331.63 280.683 337.989 275.994 342.678C271.306 347.366 264.947 350 258.317 350C251.686 350 245.327 347.366 240.639 342.678C235.951 337.989 233.317 331.63 233.317 325V315.283C227.809 316.206 222.234 316.669 216.65 316.667H149.983C144.399 316.669 138.824 316.206 133.317 315.283V325C133.317 331.63 130.683 337.989 125.994 342.678C121.306 347.366 114.947 350 108.317 350C101.686 350 95.3274 347.366 90.639 342.678C85.9506 337.989 83.3167 331.63 83.3167 325V291.217C68.216 277.716 57.5713 259.948 52.7914 240.264C48.0115 220.581 49.3219 199.91 56.549 180.987C63.7762 162.064 76.5794 145.783 93.2639 134.297C109.948 122.811 129.728 116.663 149.983 116.667H191.65L266.65 66.6666H266.667Z" stroke="#6D0AD6" stroke-width="33.3333" stroke-linecap="round" stroke-linejoin="round"/>
</svg>
