<svg width="400" height="400" viewBox="0 0 400 400" fill="none" xmlns="http://www.w3.org/2000/svg">
<path opacity="0.16" d="M150 300C168.409 300 183.333 285.076 183.333 266.667C183.333 248.257 168.409 233.333 150 233.333C131.59 233.333 116.667 248.257 116.667 266.667C116.667 285.076 131.59 300 150 300Z" fill="white"/>
<path opacity="0.16" d="M250 166.667C268.409 166.667 283.333 151.743 283.333 133.333C283.333 114.924 268.409 100 250 100C231.59 100 216.667 114.924 216.667 133.333C216.667 151.743 231.59 166.667 250 166.667Z" fill="white"/>
<path d="M66.6666 133.333H216.667M283.333 133.333H333.333M183.333 266.667H333.333M66.6666 266.667H116.667" stroke="#6D0AD6" stroke-width="33.3333" stroke-linecap="round" stroke-linejoin="round"/>
<path d="M150 300C168.409 300 183.333 285.076 183.333 266.667C183.333 248.257 168.409 233.333 150 233.333C131.59 233.333 116.667 248.257 116.667 266.667C116.667 285.076 131.59 300 150 300Z" stroke="#F4B501" stroke-width="33.3333"/>
<path d="M250 166.667C268.409 166.667 283.333 151.743 283.333 133.333C283.333 114.924 268.409 100 250 100C231.59 100 216.667 114.924 216.667 133.333C216.667 151.743 231.59 166.667 250 166.667Z" stroke="#DD2E44" stroke-width="33.3333"/>
</svg>
