<svg width="400" height="400" viewBox="0 0 400 400" fill="none" xmlns="http://www.w3.org/2000/svg">
<path d="M33.3333 200V100H108.333V83.3334C108.333 70.0725 113.601 57.3549 122.978 47.978C132.355 38.6012 145.072 33.3334 158.333 33.3334C171.594 33.3334 184.312 38.6012 193.689 47.978C203.065 57.3549 208.333 70.0725 208.333 83.3334V100H283.333V200H316.667C329.927 200 342.645 205.268 352.022 214.645C361.399 224.022 366.667 236.739 366.667 250C366.667 263.261 361.399 275.979 352.022 285.355C342.645 294.732 329.927 300 316.667 300H283.333V366.667H33.3333V300H66.6666C79.9274 300 92.6451 294.732 102.022 285.355C111.399 275.979 116.667 263.261 116.667 250C116.667 236.739 111.399 224.022 102.022 214.645C92.6451 205.268 79.9274 200 66.6666 200H33.3333Z" stroke="#6D0AD6" stroke-width="33.3333" stroke-linejoin="round"/>
</svg>
