<svg width="100" height="100" viewBox="0 0 100 100" fill="none" xmlns="http://www.w3.org/2000/svg">
<path d="M81.667 71.666C78.252 71.666 75.325 73.724 74.036 76.666H59.388C58.011 72.789 54.349 70 50 70C45.651 70 41.992 72.789 40.612 76.666H25.964C24.675 73.724 21.748 71.666 18.333 71.666C13.73 71.666 10 75.396 10 80.003C10 84.603 13.73 88.333 18.333 88.333C21.751 88.333 24.678 86.272 25.964 83.333H40.612C41.989 87.207 45.651 90 50 90C54.349 90 58.011 87.207 59.388 83.333H74.036C75.322 86.272 78.249 88.333 81.667 88.333C86.27 88.333 90 84.603 90 80.003C90 75.396 86.27 71.666 81.667 71.666ZM50 83.333C48.157 83.333 46.667 81.842 46.667 80C46.667 78.157 48.157 76.666 50 76.666C51.843 76.666 53.333 78.157 53.333 80C53.333 81.842 51.843 83.333 50 83.333Z" fill="white"/>
<path d="M50 10C37.119 10 26.667 20.44 26.667 33.333C26.667 39.771 29.277 45.604 33.503 49.83L50 64.999L66.501 49.825C70.726 45.604 73.337 39.771 73.333 33.328C73.333 20.452 62.888 10 50 10ZM61.79 45.108L50 55.943L38.015 44.923C35.069 41.968 33.333 37.782 33.333 33.333C33.333 24.144 40.811 16.666 50 16.666C59.189 16.666 66.667 24.14 66.667 33.328C66.67 37.782 64.938 41.964 61.79 45.108Z" fill="white"/>
<path d="M50 23.333C44.479 23.333 40 27.811 40 33.333C40 38.855 44.479 43.333 50 43.333C55.524 43.333 60 38.855 60 33.333C60 27.811 55.524 23.333 50 23.333ZM50 36.666C48.157 36.666 46.667 35.174 46.667 33.333C46.667 31.492 48.157 29.999 50 29.999C51.843 29.999 53.333 31.492 53.333 33.333C53.333 35.174 51.843 36.666 50 36.666Z" fill="white"/>
</svg>
